<svg width="65" height="59" fill="none" xmlns="http://www.w3.org/2000/svg"><path d="M58.595 8.51c-.35-4.522-4.139-8.094-8.748-8.094H8.776C3.938.416 0 4.353 0 9.193v40.613c0 4.84 3.938 8.778 8.778 8.778h47.444c4.84 0 8.778-3.938 8.778-8.778V16.96c0-4.018-2.715-7.411-6.405-8.45zM8.778 4.516h41.069a4.684 4.684 0 014.565 3.665H8.778A8.723 8.723 0 004.1 9.537v-.344a4.683 4.683 0 014.677-4.677zm47.444 49.967H8.778A4.683 4.683 0 014.1 49.806V16.96a4.683 4.683 0 014.677-4.677h47.444a4.683 4.683 0 014.678 4.677v7.155H47.826c-5.181 0-9.396 4.215-9.396 9.396 0 5.18 4.215 9.396 9.396 9.396h13.073v6.9a4.683 4.683 0 01-4.677 4.677zM60.9 38.805H47.826a5.301 5.301 0 01-5.295-5.295 5.301 5.301 0 015.295-5.295h13.073v10.59z" fill="#2E9ADB"/></svg>